<svg id="Layer_1" data-name="Layer 1" xmlns="http://www.w3.org/2000/svg" viewBox="0 0 839.98 964.99"><defs><style>.cls-1{fill:#fff;stroke:#000;stroke-miterlimit:10;}</style></defs><title>reportbug</title><path class="cls-1" d="M542.5,584.5c107.71-.65,197,114,204.67,277.61,0,.74-.18,1.47-.18,2.22l-.46,375.49a14.67,14.67,0,0,1-22.92,12.11L554.75,1137.11a14.66,14.66,0,0,0-16.5,0" transform="translate(-126.94 -584)"/><polyline class="cls-1" points="620.97 280.02 760.56 280.5 839.56 404.5"/><polyline class="cls-1" points="621.05 354.62 759.56 354.5 839.56 471.5"/><path class="cls-1" d="M747,1039.12" transform="translate(-126.94 -584)"/><path class="cls-1" d="M747,988.26" transform="translate(-126.94 -584)"/><polyline class="cls-1" points="619.87 410.69 747.56 410.5 838.56 544.5"/><polyline class="cls-1" points="619.81 477.24 743.56 477.5 838.56 619.5"/><path class="cls-1" d="M747,1105.46" transform="translate(-126.94 -584)"/><polyline class="cls-1" points="620.74 573.68 756.56 573.5 839.56 696.5"/><polygon class="cls-1" points="471.56 146.5 520.56 214.5 520.56 255.5 471.56 174.5 471.56 146.5"/><path class="cls-1" d="M554.5,1133.5" transform="translate(-126.94 -584)"/><path class="cls-1" d="M547,1134.59" transform="translate(-126.94 -584)"/><path class="cls-1" d="M542.5,584.5c-107.71-.65-189.14,113.6-196.81,277.21,0,.74.18,1.47.18,2.22l.45,375.49a14.68,14.68,0,0,0,22.93,12.11l168.86-114.82a14.66,14.66,0,0,1,16.5,0" transform="translate(-126.94 -584)"/><polyline class="cls-1" points="220 279.62 80.42 280.1 1.42 404.1"/><polyline class="cls-1" points="219.93 354.22 81.42 354.1 1.42 471.1"/><path class="cls-1" d="M345.87,1038.72" transform="translate(-126.94 -584)"/><path class="cls-1" d="M345.87,987.86" transform="translate(-126.94 -584)"/><polyline class="cls-1" points="219.1 410.29 91.42 410.1 0.42 544.1"/><polyline class="cls-1" points="219.16 476.84 95.42 477.1 0.42 619.1"/><path class="cls-1" d="M345.87,1105.06" transform="translate(-126.94 -584)"/><polyline class="cls-1" points="220.24 573.28 84.42 573.1 1.42 696.1"/><polygon class="cls-1" points="367.42 146.1 318.42 214.1 318.42 255.1 367.42 174.1 367.42 146.1"/><path class="cls-1" d="M538.36,1133.1" transform="translate(-126.94 -584)"/><path class="cls-1" d="M545.86,1134.19" transform="translate(-126.94 -584)"/><path class="cls-1" d="M718.5,1218.5c0,71.69-53.47,132.09-126.32,150.35A190,190,0,0,1,546,1374.5c-95.27,0-172.5-69.84-172.5-156s77.23-156,172.5-156S718.5,1132.34,718.5,1218.5Z" transform="translate(-126.94 -584)"/><path class="cls-1" d="M632.5,1506.5l-40-138Z" transform="translate(-126.94 -584)"/><line class="cls-1" x1="663.56" y1="964.5" x2="505.56" y2="922.5"/><line class="cls-1" x1="325.76" y1="921.13" x2="365.76" y2="783.13"/><line class="cls-1" x1="153.56" y1="964.5" x2="325.76" y2="919.13"/><polygon class="cls-1" points="465.56 245.27 514.56 313.27 514.56 354.27 465.56 273.27 465.56 245.27"/><polygon class="cls-1" points="370.56 255.27 321.56 323.27 321.56 364.27 370.56 283.27 370.56 255.27"/><polygon class="cls-1" points="374.56 364.27 325.56 432.27 325.56 473.27 374.56 392.27 374.56 364.27"/><polygon class="cls-1" points="471.56 364.27 520.56 432.27 520.56 473.27 471.56 392.27 471.56 364.27"/><circle class="cls-1" cx="335.56" cy="747.5" r="30"/><circle class="cls-1" cx="284.56" cy="717.5" r="26"/><circle class="cls-1" cx="497.56" cy="752.5" r="30"/><circle class="cls-1" cx="548.56" cy="722.5" r="26"/></svg>